<svg xmlns="http://www.w3.org/2000/svg" class="control_svg" width="17" height="18" viewBox="0 0 17 18"><path d="M13.702 13.175c.827.315 1.486.817 1.978 1.506.492.689.738 1.467.738 2.333h-16.419c0-1.417.532-2.5 1.595-3.248.394-.276 1.358-.591 2.894-.945.945-.118 1.457-.374 1.536-.768.039-.157.059-.61.059-1.358 0-.118-.039-.217-.118-.295-.157-.157-.315-.433-.472-.827-.079-.315-.157-.787-.236-1.417-.157.039-.285-.02-.384-.177-.098-.157-.177-.364-.236-.62l-.089-.443c-.157-.866-.098-1.28.177-1.24-.118-.157-.217-.532-.295-1.122-.118-.866-.059-1.634.177-2.303.276-.748.768-1.319 1.476-1.713.709-.394 1.476-.571 2.303-.532.787.039 1.506.276 2.156.709.65.433 1.093 1.024 1.329 1.772.197.551.217 1.319.059 2.303-.079.472-.157.768-.236.886.118-.039.207 0 .266.118.059.118.079.266.059.443l-.059.472c-.02.138-.049.246-.089.325l-.118.413c-.039.276-.108.472-.207.591-.098.118-.226.157-.384.118-.079.866-.217 1.476-.413 1.831 0 .039-.069.138-.207.295-.138.157-.207.256-.207.295v.65c0 .394.039.689.118.886.079.197.354.354.827.472.276.118.679.217 1.211.295.532.079.935.177 1.211.295z" fill="#ffffff"></path></svg>